<svg xmlns="http://www.w3.org/2000/svg" viewBox="0 0 512 512" role="img" aria-label="AdOff">
  <title>AdOff</title>
  <rect width="512" height="512" rx="112" fill="#0a0a1a"/>
  <g transform="translate(76.0 294.1) scale(0.0547 -0.0547)">
    <path d="M47.43994140625 0 544.359375 1490H1016.6826171875L1528.962158203125 0H1132.879638671875L925.56103515625 651.43701171875Q876.040771484375 813.998046875 829.5606689453125 997.298828125Q783.08056640625 1180.599609375 736.440673828125 1378.19970703125H815.001220703125Q770.121337890625 1180.11962890625 727.9613037109375 996.3388671875Q685.80126953125 812.55810546875 638.52099609375 651.43701171875L439.4423828125 0ZM384.80078125 317.19873046875V586.56005859375H1191.601318359375V317.19873046875Z" fill="#ffffff" transform="translate(0)"/>
    <path d="M519.999267578125 -16.39990234375Q396.199462890625 -16.39990234375 294.1395263671875 48.1400146484375Q192.07958984375 112.679931640625 132.07958984375 240.39990234375Q72.07958984375 368.119873046875 72.07958984375 557.52001953125Q72.07958984375 754.2802734375 134.4796142578125 881.500244140625Q196.879638671875 1008.72021484375 298.5595703125 1070.360107421875Q400.239501953125 1132 517.19921875 1132Q606.43896484375 1132 669.2989501953125 1101.7000732421875Q732.158935546875 1071.400146484375 772.739013671875 1024.0001220703125Q813.319091796875 976.60009765625 833.59912109375 926.079833984375H841.51904296875V1490H1190.2412109375V0H845.9990234375V181.360107421875H833.59912109375Q811.799072265625 130.599853515625 770.5989990234375 85.619873046875Q729.39892578125 40.639892578125 667.5589599609375 12.1199951171875Q605.718994140625 -16.39990234375 519.999267578125 -16.39990234375ZM638.96044921875 256.321533203125Q705.239990234375 256.321533203125 752.439697265625 293.861328125Q799.639404296875 331.401123046875 824.6192626953125 399.040771484375Q849.59912109375 466.680419921875 849.59912109375 558Q849.59912109375 650.839599609375 824.7392578125 718.25927734375Q799.87939453125 785.678955078125 752.6796875 822.478759765625Q705.47998046875 859.278564453125 638.96044921875 859.278564453125Q571.720947265625 859.278564453125 525.1612548828125 821.7587890625Q478.6015625 784.239013671875 454.6217041015625 716.579345703125Q430.641845703125 648.919677734375 430.641845703125 558Q430.641845703125 467.600341796875 454.74169921875 399.460693359375Q478.841552734375 331.321044921875 525.521240234375 293.8212890625Q572.200927734375 256.321533203125 638.96044921875 256.321533203125Z" fill="#ffffff" transform="translate(1512)"/>
    <path d="M791.60009765625 -20Q591.47998046875 -20 430.579833984375 69.0799560546875Q269.6796875 158.159912109375 176.07958984375 328.89990234375Q82.4794921875 499.639892578125 82.4794921875 744Q82.4794921875 990.1201171875 176.07958984375 1161.2401123046875Q269.6796875 1332.360107421875 430.579833984375 1421.1800537109375Q591.47998046875 1510 791.60009765625 1510Q991.72021484375 1510 1152.120361328125 1421.1800537109375Q1312.5205078125 1332.360107421875 1406.380615234375 1161.2401123046875Q1500.24072265625 990.1201171875 1500.24072265625 744Q1500.24072265625 498.8798828125 1406.380615234375 328.139892578125Q1312.5205078125 157.39990234375 1152.120361328125 68.699951171875Q991.72021484375 -20 791.60009765625 -20ZM791.60009765625 289.76171875Q900.27978515625 289.76171875 978.139404296875 342.0615234375Q1055.9990234375 394.361328125 1097.8387451171875 495.8409423828125Q1139.678466796875 597.320556640625 1139.678466796875 744Q1139.678466796875 891.91943359375 1097.8387451171875 993.779052734375Q1055.9990234375 1095.638671875 978.139404296875 1147.9384765625Q900.27978515625 1200.23828125 791.60009765625 1200.23828125Q683.4404296875 1200.23828125 605.4608154296875 1147.8184814453125Q527.481201171875 1095.398681640625 485.261474609375 993.5390625Q443.041748046875 891.679443359375 443.041748046875 744Q443.041748046875 597.320556640625 485.261474609375 495.9609375Q527.481201171875 394.601318359375 605.4608154296875 342.1815185546875Q683.4404296875 289.76171875 791.60009765625 289.76171875Z" fill="#7c5cfc" transform="translate(2765)"/>
    <path d="M779.081298828125 1118V859.11865234375H20V1118ZM208.07958984375 0V1178.078857421875Q208.07958984375 1306.2392578125 256.2396240234375 1390.99951171875Q304.399658203125 1475.759765625 390.31982421875 1517.8798828125Q476.239990234375 1560 588.400390625 1560Q662.280517578125 1560 727.4608154296875 1548.3599853515625Q792.64111328125 1536.719970703125 823.28125 1528.47998046875L767.201171875 1272.638671875Q747.12109375 1278.398681640625 720.06103515625 1282.878662109375Q693.0009765625 1287.358642578125 666.401123046875 1287.358642578125Q603.92138671875 1287.358642578125 579.6015625 1258.9188232421875Q555.28173828125 1230.47900390625 555.28173828125 1180.639404296875V0Z" fill="#7c5cfc" transform="translate(4284)"/>
    <path d="M779.081298828125 1118V859.11865234375H20V1118ZM208.07958984375 0V1178.078857421875Q208.07958984375 1306.2392578125 256.2396240234375 1390.99951171875Q304.399658203125 1475.759765625 390.31982421875 1517.8798828125Q476.239990234375 1560 588.400390625 1560Q662.280517578125 1560 727.4608154296875 1548.3599853515625Q792.64111328125 1536.719970703125 823.28125 1528.47998046875L767.201171875 1272.638671875Q747.12109375 1278.398681640625 720.06103515625 1282.878662109375Q693.0009765625 1287.358642578125 666.401123046875 1287.358642578125Q603.92138671875 1287.358642578125 579.6015625 1258.9188232421875Q555.28173828125 1230.47900390625 555.28173828125 1180.639404296875V0Z" fill="#7c5cfc" transform="translate(5089)"/>
    <path d="M361.120849609375 -21.360107421875Q280.800537109375 -21.360107421875 226.4803466796875 32.2000732421875Q172.16015625 85.76025390625 172.16015625 165.320556640625Q172.16015625 244.880859375 226.4803466796875 298.4410400390625Q280.800537109375 352.001220703125 361.120849609375 352.001220703125Q441.441162109375 352.001220703125 495.7613525390625 298.4410400390625Q550.08154296875 244.880859375 550.08154296875 165.320556640625Q550.08154296875 85.76025390625 495.7613525390625 32.2000732421875Q441.441162109375 -21.360107421875 361.120849609375 -21.360107421875Z" fill="#7c5cfc" transform="translate(5894)"/>
  </g>
</svg>
